<?xml version="1.0" standalone="no"?><!DOCTYPE svg PUBLIC "-//W3C//DTD SVG 1.1//EN" "http://www.w3.org/Graphics/SVG/1.1/DTD/svg11.dtd"><svg t="1564049682265" class="icon" viewBox="0 0 1024 1024" version="1.1" xmlns="http://www.w3.org/2000/svg" p-id="4589" xmlns:xlink="http://www.w3.org/1999/xlink" width="64" height="64"><defs><style type="text/css"></style></defs><path d="M733.915429 940.836571l-14.848-0.073142-374.491429-0.073143c-95.890286 0-171.008-54.857143-171.008-124.854857v-235.52a36.571429 36.571429 0 0 1 73.142857 0v235.593142c0 24.429714 41.837714 51.712 97.865143 51.712l375.149714 0.073143c30.354286 0.512 61.366857 0.512 71.606857-9.581714 6.290286-6.290286 9.728-21.211429 9.728-42.203429a36.571429 36.571429 0 0 1 73.142858 0c0 42.349714-10.313143 73.142857-31.378286 94.134858-28.452571 28.086857-68.608 30.793143-108.909714 30.793142zM923.428571 520.265143a36.132571 36.132571 0 0 1-26.477714-11.410286L597.723429 193.755429a116.882286 116.882286 0 0 0-85.284572-37.522286h-0.292571c-32.402286 0-62.902857 13.312-85.942857 37.595428L127.122286 508.854857a36.644571 36.644571 0 0 1-51.712 1.389714 36.644571 36.644571 0 0 1-1.389715-51.712l299.154286-315.099428a190.610286 190.610286 0 0 1 138.971429-60.342857h0.438857a189.001143 189.001143 0 0 1 138.24 60.416l299.081143 314.953143a36.571429 36.571429 0 0 1-26.477715 61.805714z" fill="#4D5573" p-id="4590"></path><path d="M406.674286 796.16V564.077714c0-34.962286 27.136-63.341714 60.562285-63.341714H574.171429c33.133714 0 59.977143 28.452571 59.977142 63.341714v232.082286" fill="#4D5573" p-id="4591"></path></svg>