<?xml version="1.0" standalone="no"?><!DOCTYPE svg PUBLIC "-//W3C//DTD SVG 1.1//EN" "http://www.w3.org/Graphics/SVG/1.1/DTD/svg11.dtd"><svg t="1563958594980" class="icon" viewBox="0 0 1024 1024" version="1.1" xmlns="http://www.w3.org/2000/svg" p-id="9258" width="64" height="64" xmlns:xlink="http://www.w3.org/1999/xlink"><defs><style type="text/css"></style></defs><path d="M424.096954 64.98506c-60.786879 0-120.318109 11.489682-178.281571 44.008306 3.528504 6.17156-0.031724 12.126178-0.746021 18.646686-2.449895 22.344914 20.692099 40.08495 44.011133 63.403029 44.74999 44.748157 96.843527 95.109148 132.77942 135.756917-32.075824 31.078833-64.151647 66.13628-96.227471 94.730525-41.573518-40.368406-90.12934-91.617627-132.778396-134.264936-15.466884-15.465227-29.95033-34.96228-44.757154-41.772382-13.469308-6.194072-25.767906 1.678222-38.788987 0-38.843225 72.722278-50.844028 142.3071-42.519091 215.569684 7.427461 65.37187 33.747975 132.893706 89.512261 195.429994 57.081335 64.010873 127.904189 96.366791 193.94596 108.903316 66.635313 12.649088 128.734124 8.067746 196.184023-15.663748 37.776896 38.114063 73.506073 72.01108 111.14584 109.648282 35.454919 35.453467 68.078234 76.685543 109.653799 91.747587 58.252045 21.104667 147.145181 1.428535 181.26463-78.32181 9.346238-21.847587 12.951494-48.737004 10.443268-73.098855-1.913661-18.59859-9.107798-46.677089-25.138547-66.364477-0.013304-0.017396-0.02149-0.033769-0.034794-0.053212-8.194972-11.968589-55.711072-57.914014-55.711072-57.914014l0.002047 0.005117c-17.790907-17.666358-37.098416-35.425837-56.369085-54.695716-14.906089-14.906501-32.863802-32.861432-50.723273-50.720172-17.445016-17.444301-34.62089-40.679491-51.473387-48.486294-30.158069-13.969153-63.130346 21.946848-49.977252 49.976228 8.063983 17.183358 31.013588 33.995255 48.487258 51.469232 34.524696 34.522258 70.77578 69.279876 104.4337 102.936417 1.699781 1.698688 3.376025 3.408633 5.031803 5.118578l-0.00307 0c0 0 0.01842 0.016373 0.047074 0.047072 5.906765 6.094812 11.577137 12.195763 17.234206 17.876136 15.131225 15.991206 35.187825 38.027082 38.381695 45.726437 0.065494 0.169869 0.129965 0.338714 0.192389 0.50756 0.01228 0.037862 0.0307 0.081864 0.042981 0.119727 0.001023 0.002047 0.001023 0.00307 0.001023 0.007163 0.084938 0.236384 0.164759 0.477884 0.23844 0.714268 18.150102 58.516742-50.796954 112.171756-102.939611 80.558757-11.137098-6.752798-18.24118-18.238386-29.092764-29.089525-59.582398-59.578933-133.442549-130.358977-190.21688-188.718129-97.783984 53.133128-208.253391 58.680471-306.583842-11.189853-58.420898-41.509393-89.263587-97.778954-105.177674-148.434657-16.309099-51.90516-17.015209-104.508215-2.984083-152.167678 40.55017 40.548508 82.445019 82.441641 123.82717 123.822097 14.350411 14.349823 26.06263 31.735795 40.280006 38.786375 27.056301 13.418614 47.857899-13.541411 76.086957-41.769312 14.79045-14.789844 28.583137-28.581965 43.265112-43.263339 21.391046-21.390169 73.586917-64.263629 81.308079-87.272669 7.900248-23.541159-13.921628-42.267663-36.550925-64.896032-44.211709-44.208874-84.732202-85.060281-125.319212-126.805034 79.683002-18.256806 169.030504-10.090822 249.146382 56.688093 76.173941 63.491033 102.577346 150.268422 100.701549 217.061664-0.276304 9.844206-3.530551 20.23588 0.001023 29.838585 13.14593 28.236088 49.730626 35.642778 68.625725 7.458879 6.649716-9.914814 5.221122-30.748305 5.221122-44.010353 0.002047-74.291007-24.828472-151.675468-83.544094-222.283596C610.006562 94.522794 507.665609 64.984037 424.096954 64.98506z" p-id="9259"></path></svg>