<?xml version="1.0" standalone="no"?><!DOCTYPE svg PUBLIC "-//W3C//DTD SVG 1.1//EN" "http://www.w3.org/Graphics/SVG/1.1/DTD/svg11.dtd"><svg t="1563958638997" class="icon" viewBox="0 0 1024 1024" version="1.1" xmlns="http://www.w3.org/2000/svg" p-id="9807" xmlns:xlink="http://www.w3.org/1999/xlink" width="64" height="64"><defs><style type="text/css"></style></defs><path d="M73.8048 145.91488h466.97472l-18.0992-7.49568 260.13696 260.14208c23.36256 23.36256 59.5712-12.83584 36.1984-36.20352L562.94912 106.2912c-10.70592-10.70592-21.71904-11.5712-35.79904-11.5712H73.8048c-33.01888-0.00512-33.01888 51.19488 0 51.19488z" p-id="9808"></path><path d="M305.18272 287.14496c24.36608 24.56576 48.18944 49.67936 71.82848 74.94656A3315.08224 3315.08224 0 0 1 445.9008 438.11328c18.37568 20.90496 35.9168 43.07968 41.77408 70.84032 4.56704 21.64224-14.88896 42.79808-32.37376 52.11136-33.67424 17.93536-75.55072-26.4704-96.7168-46.45376-95.83104-90.51648-190.79168-181.9648-285.86496-273.26976-23.808-22.8608-60.0576 13.30176-36.20352 36.20352 44.48256 42.71616 89.0112 85.39136 133.56032 128.04096 35.08736 33.5872 70.1952 67.15392 105.36448 100.65408 31.5904 30.09536 62.34624 63.11936 98.73408 87.424 35.47648 23.70048 83.21024 30.75072 118.912 4.00896 27.47392-20.5824 46.57664-50.88768 45.97248-85.95968-1.09056-63.71328-62.30528-116.5824-101.66272-159.68256-31.3344-34.30912-63.29344-68.11136-96.01024-101.09952-23.27552-23.45472-59.4688 12.75392-36.20352 36.21376z" p-id="9809"></path><path d="M444.8256 408.18688H892.16512c17.3824 0 17.48992 13.07648 17.48992 26.48064v416.60928c0 12.3904 5.66784 43.53024-12.77952 45.184-9.05216 0.80896-18.54464 0-27.61728 0H179.66592c-12.47232 0-20.5568-4.992-20.5568-18.59072V468.43904c0-13.04064-7.6288-58.4192 12.78464-60.25216 32.6144-2.92352 32.896-54.14912 0-51.2-76.44672 6.85056-63.98464 85.18144-63.98464 140.14464v386.47296c0 67.2512 66.67264 64.05632 113.50016 64.05632h674.70848c37.02272 0 64.73728-30.37184 64.73728-66.60096V478.58176c0-49.65376 5.90848-121.59488-65.84832-121.59488H444.83072c-33.024 0-33.024 51.2-0.00512 51.2z" p-id="9810"></path><path d="M148.43904 787.7376H922.46016c33.01376 0 33.01376-51.2 0-51.2H148.43392c-33.01376 0-33.01376 51.2 0.00512 51.2z" p-id="9811"></path></svg>